<mxfile host="Electron" modified="2024-07-20T12:51:17.374Z" agent="Mozilla/5.0 (Windows NT 10.0; Win64; x64) AppleWebKit/537.36 (KHTML, like Gecko) draw.io/24.6.4 Chrome/124.0.6367.207 Electron/30.0.6 Safari/537.36" etag="3iFd9i3aXAX3C6xuJPPo" version="24.6.4" type="device">
  <diagram name="第 1 页" id="nE0wfuw-Ve8IWSHamWYk">
    <mxGraphModel dx="2710" dy="1045" grid="1" gridSize="10" guides="1" tooltips="1" connect="1" arrows="1" fold="1" page="1" pageScale="1" pageWidth="827" pageHeight="1169" math="0" shadow="0">
      <root>
        <mxCell id="0" />
        <mxCell id="1" parent="0" />
        <mxCell id="1crTcf5e7lMaoE_Rrd1W-3" value="&lt;span style=&quot;color: rgb(6, 6, 7); font-size: 18px; letter-spacing: 0.25px; text-align: left; white-space-collapse: preserve; background-color: rgb(255, 255, 255); box-sizing: inherit;&quot;&gt;数据收集&lt;/span&gt;" style="rounded=0;whiteSpace=wrap;html=1;fontFamily=Nunito;fontStyle=0;fontSize=18;" parent="1" vertex="1">
          <mxGeometry x="-160" y="520" width="120" height="60" as="geometry" />
        </mxCell>
        <mxCell id="1crTcf5e7lMaoE_Rrd1W-4" value="&lt;span style=&quot;color: rgb(6, 6, 7); font-size: 18px; letter-spacing: 0.25px; text-align: left; white-space-collapse: preserve; background-color: rgb(255, 255, 255); box-sizing: inherit;&quot;&gt;数据预处理&lt;/span&gt;" style="rounded=0;whiteSpace=wrap;html=1;fontFamily=Nunito;fontStyle=0;fontSize=18;" parent="1" vertex="1">
          <mxGeometry x="-20" y="520" width="120" height="60" as="geometry" />
        </mxCell>
        <mxCell id="1crTcf5e7lMaoE_Rrd1W-5" value="&lt;span style=&quot;color: rgb(6, 6, 7); font-size: 18px; letter-spacing: 0.25px; text-align: left; white-space-collapse: preserve; background-color: rgb(255, 255, 255); box-sizing: inherit;&quot;&gt;模型预训练&lt;/span&gt;" style="rounded=0;whiteSpace=wrap;html=1;fontFamily=Nunito;fontStyle=0;fontSize=18;" parent="1" vertex="1">
          <mxGeometry x="120" y="520" width="110" height="60" as="geometry" />
        </mxCell>
        <mxCell id="1crTcf5e7lMaoE_Rrd1W-6" value="&lt;span style=&quot;color: rgb(6, 6, 7); font-size: 18px; letter-spacing: 0.25px; text-align: left; white-space-collapse: preserve; background-color: rgb(255, 255, 255); box-sizing: inherit;&quot;&gt;模型评估&lt;/span&gt;" style="rounded=0;whiteSpace=wrap;html=1;fontFamily=Nunito;fontStyle=0;fontSize=18;" parent="1" vertex="1">
          <mxGeometry x="120" y="450" width="330" height="60" as="geometry" />
        </mxCell>
        <mxCell id="1crTcf5e7lMaoE_Rrd1W-7" value="&lt;span style=&quot;color: rgb(6, 6, 7); font-size: 18px; letter-spacing: 0.25px; text-align: left; white-space-collapse: preserve; background-color: rgb(255, 255, 255); box-sizing: inherit;&quot;&gt;模型微调&lt;/span&gt;&lt;div style=&quot;font-size: 18px;&quot;&gt;&lt;span style=&quot;color: rgb(6, 6, 7); font-size: 18px; letter-spacing: 0.25px; text-align: left; white-space-collapse: preserve; background-color: rgb(255, 255, 255); box-sizing: inherit;&quot;&gt;&lt;span style=&quot;color: rgb(51, 51, 51); font-size: 18px; letter-spacing: normal; orphans: 4;&quot;&gt;Fine-tuning&lt;/span&gt;&lt;br style=&quot;font-size: 18px;&quot;&gt;&lt;/span&gt;&lt;/div&gt;" style="rounded=0;whiteSpace=wrap;html=1;fontFamily=Nunito;fontStyle=0;fontSize=18;" parent="1" vertex="1">
          <mxGeometry x="240" y="520" width="120" height="60" as="geometry" />
        </mxCell>
        <mxCell id="1crTcf5e7lMaoE_Rrd1W-8" value="&lt;span style=&quot;color: rgb(6, 6, 7); font-size: 18px; letter-spacing: 0.25px; text-align: left; white-space-collapse: preserve; background-color: rgb(255, 255, 255); box-sizing: inherit;&quot;&gt;模型对齐&lt;/span&gt;&lt;div style=&quot;font-size: 18px;&quot;&gt;&lt;span style=&quot;color: rgb(6, 6, 7); font-size: 18px; letter-spacing: 0.25px; text-align: left; white-space-collapse: preserve; background-color: rgb(255, 255, 255); box-sizing: inherit;&quot;&gt;&lt;span style=&quot;color: rgb(51, 51, 51); font-size: 18px; letter-spacing: normal; orphans: 4;&quot;&gt;Alignment&lt;/span&gt;&lt;br style=&quot;font-size: 18px;&quot;&gt;&lt;/span&gt;&lt;/div&gt;" style="rounded=0;whiteSpace=wrap;html=1;fontFamily=Nunito;fontStyle=0;fontSize=18;" parent="1" vertex="1">
          <mxGeometry x="650" y="450" width="120" height="60" as="geometry" />
        </mxCell>
        <mxCell id="1crTcf5e7lMaoE_Rrd1W-10" value="&lt;span style=&quot;color: rgb(6, 6, 7); font-size: 18px; letter-spacing: 0.25px; text-align: left; white-space-collapse: preserve; background-color: rgb(255, 255, 255); box-sizing: inherit;&quot;&gt;模型部署&lt;/span&gt;" style="rounded=0;whiteSpace=wrap;html=1;fontFamily=Nunito;fontStyle=0;fontSize=18;" parent="1" vertex="1">
          <mxGeometry x="780" y="520" width="120" height="60" as="geometry" />
        </mxCell>
        <mxCell id="1crTcf5e7lMaoE_Rrd1W-11" value="&lt;span style=&quot;color: rgb(6, 6, 7); font-size: 18px; letter-spacing: 0.25px; text-align: left; white-space-collapse: preserve; background-color: rgb(255, 255, 255); box-sizing: inherit;&quot;&gt;模型监控与维护&lt;/span&gt;" style="rounded=0;whiteSpace=wrap;html=1;fontFamily=Nunito;fontStyle=0;fontSize=18;" parent="1" vertex="1">
          <mxGeometry x="910" y="520" width="120" height="60" as="geometry" />
        </mxCell>
        <mxCell id="1crTcf5e7lMaoE_Rrd1W-12" value="&lt;span style=&quot;color: rgb(6, 6, 7); font-size: 18px; letter-spacing: 0.25px; text-align: left; white-space-collapse: preserve; background-color: rgb(255, 255, 255); box-sizing: inherit;&quot;&gt;模型更新&lt;/span&gt;" style="rounded=0;whiteSpace=wrap;html=1;fontFamily=Nunito;fontStyle=0;fontSize=18;" parent="1" vertex="1">
          <mxGeometry x="1040" y="520" width="120" height="60" as="geometry" />
        </mxCell>
        <mxCell id="m1tW98zLpAQQyHlPn3tl-1" value="&lt;span style=&quot;color: rgb(6, 6, 7); font-size: 18px; letter-spacing: 0.25px; text-align: left; white-space-collapse: preserve; background-color: rgb(255, 255, 255); box-sizing: inherit;&quot;&gt;训练中优化&lt;/span&gt;" style="rounded=0;whiteSpace=wrap;html=1;fontFamily=Nunito;fontStyle=0;fontSize=18;" parent="1" vertex="1">
          <mxGeometry x="120" y="590" width="240" height="60" as="geometry" />
        </mxCell>
        <mxCell id="m1tW98zLpAQQyHlPn3tl-2" value="&lt;span style=&quot;color: rgb(6, 6, 7); font-size: 18px; letter-spacing: 0.25px; text-align: left; white-space-collapse: preserve; background-color: rgb(255, 255, 255); box-sizing: inherit;&quot;&gt;训练后优化&lt;/span&gt;" style="rounded=0;whiteSpace=wrap;html=1;verticalAlign=top;fontFamily=Nunito;fontStyle=0;fontSize=18;" parent="1" vertex="1">
          <mxGeometry x="370" y="520" width="400" height="150" as="geometry" />
        </mxCell>
        <mxCell id="d93UorX2Dsy2BGc8bKR5-2" value="&lt;span style=&quot;color: rgb(51, 51, 51); font-size: 18px; orphans: 4; text-align: start; white-space-collapse: preserve; background-color: rgb(255, 255, 255);&quot;&gt;剪枝&lt;/span&gt;&lt;div&gt;&lt;span style=&quot;color: rgb(51, 51, 51); font-family: &amp;quot;Open Sans&amp;quot;, &amp;quot;Clear Sans&amp;quot;, &amp;quot;Helvetica Neue&amp;quot;, Helvetica, Arial, &amp;quot;Segoe UI Emoji&amp;quot;, sans-serif; font-size: 16px; orphans: 4; text-align: left; white-space-collapse: preserve; background-color: rgb(255, 255, 255);&quot;&gt;Model sparsification&lt;/span&gt;&lt;/div&gt;&lt;div&gt;&lt;span style=&quot;color: rgb(51, 51, 51); font-family: &amp;quot;Open Sans&amp;quot;, &amp;quot;Clear Sans&amp;quot;, &amp;quot;Helvetica Neue&amp;quot;, Helvetica, Arial, &amp;quot;Segoe UI Emoji&amp;quot;, sans-serif; font-size: 16px; orphans: 4; text-align: left; white-space-collapse: preserve; background-color: rgb(255, 255, 255);&quot;&gt;Model Pruning&lt;/span&gt;&lt;span style=&quot;color: rgb(51, 51, 51); font-size: 18px; orphans: 4; text-align: start; white-space-collapse: preserve; background-color: rgb(255, 255, 255);&quot;&gt;&lt;br&gt;&lt;/span&gt;&lt;/div&gt;" style="rounded=1;whiteSpace=wrap;html=1;fontFamily=Nunito;fontStyle=0;fontSize=18;" vertex="1" parent="1">
          <mxGeometry x="580" y="570" width="180" height="80" as="geometry" />
        </mxCell>
        <mxCell id="d93UorX2Dsy2BGc8bKR5-3" value="&lt;span style=&quot;color: rgb(51, 51, 51); font-size: 18px; orphans: 4; text-align: start; white-space-collapse: preserve; background-color: rgb(255, 255, 255);&quot;&gt;量化&lt;/span&gt;&lt;div&gt;&lt;span style=&quot;color: rgb(51, 51, 51); font-family: &amp;quot;Open Sans&amp;quot;, &amp;quot;Clear Sans&amp;quot;, &amp;quot;Helvetica Neue&amp;quot;, Helvetica, Arial, &amp;quot;Segoe UI Emoji&amp;quot;, sans-serif; font-size: 16px; orphans: 4; text-align: left; white-space-collapse: preserve; background-color: rgb(255, 255, 255);&quot;&gt;Data Quantization&lt;/span&gt;&lt;span style=&quot;color: rgb(51, 51, 51); font-size: 18px; orphans: 4; text-align: start; white-space-collapse: preserve; background-color: rgb(255, 255, 255);&quot;&gt;&lt;br&gt;&lt;/span&gt;&lt;/div&gt;" style="rounded=1;whiteSpace=wrap;html=1;fontFamily=Nunito;fontStyle=0;fontSize=18;" vertex="1" parent="1">
          <mxGeometry x="390" y="550" width="180" height="50" as="geometry" />
        </mxCell>
        <mxCell id="d93UorX2Dsy2BGc8bKR5-4" value="&lt;span style=&quot;color: rgb(51, 51, 51); font-size: 18px; orphans: 4; text-align: start; white-space-collapse: preserve; background-color: rgb(255, 255, 255);&quot;&gt;知识蒸馏&lt;/span&gt;&lt;div&gt;&lt;span style=&quot;color: rgb(51, 51, 51); font-family: &amp;quot;Open Sans&amp;quot;, &amp;quot;Clear Sans&amp;quot;, &amp;quot;Helvetica Neue&amp;quot;, Helvetica, Arial, &amp;quot;Segoe UI Emoji&amp;quot;, sans-serif; font-size: 16px; orphans: 4; text-align: left; white-space-collapse: preserve; background-color: rgb(255, 255, 255);&quot;&gt;Knowledge Distillation&lt;/span&gt;&lt;span style=&quot;color: rgb(51, 51, 51); font-size: 18px; orphans: 4; text-align: start; white-space-collapse: preserve; background-color: rgb(255, 255, 255);&quot;&gt;&lt;br&gt;&lt;/span&gt;&lt;/div&gt;" style="rounded=1;whiteSpace=wrap;html=1;fontFamily=Nunito;fontStyle=0;fontSize=18;" vertex="1" parent="1">
          <mxGeometry x="390" y="610" width="180" height="50" as="geometry" />
        </mxCell>
        <mxCell id="d93UorX2Dsy2BGc8bKR5-5" value="&lt;span style=&quot;color: rgb(6, 6, 7); font-size: 18px; letter-spacing: 0.25px; text-align: left; white-space-collapse: preserve; background-color: rgb(255, 255, 255); box-sizing: inherit;&quot;&gt;ONNX&lt;/span&gt;" style="rounded=0;whiteSpace=wrap;html=1;fontFamily=Nunito;fontStyle=0;fontSize=18;" vertex="1" parent="1">
          <mxGeometry x="650" y="680" width="120" height="60" as="geometry" />
        </mxCell>
        <mxCell id="d93UorX2Dsy2BGc8bKR5-6" value="&lt;span style=&quot;color: rgb(6, 6, 7); font-size: 18px; letter-spacing: 0.25px; text-align: left; white-space-collapse: preserve; background-color: rgb(255, 255, 255); box-sizing: inherit;&quot;&gt;ONNX Runtime&lt;/span&gt;" style="rounded=0;whiteSpace=wrap;html=1;fontFamily=Nunito;fontStyle=0;fontSize=18;" vertex="1" parent="1">
          <mxGeometry x="780" y="680" width="380" height="60" as="geometry" />
        </mxCell>
        <mxCell id="d93UorX2Dsy2BGc8bKR5-7" value="&lt;span style=&quot;color: rgb(6, 6, 7); font-size: 18px; letter-spacing: 0.25px; text-align: left; white-space-collapse: preserve; background-color: rgb(255, 255, 255); box-sizing: inherit;&quot;&gt;nvida&lt;/span&gt;" style="rounded=0;whiteSpace=wrap;html=1;fontFamily=Nunito;fontStyle=0;fontSize=18;" vertex="1" parent="1">
          <mxGeometry x="780" y="750" width="120" height="60" as="geometry" />
        </mxCell>
        <mxCell id="d93UorX2Dsy2BGc8bKR5-8" value="&lt;div style=&quot;text-align: left; font-size: 18px;&quot;&gt;&lt;font style=&quot;font-size: 18px;&quot; color=&quot;#060607&quot;&gt;&lt;span style=&quot;font-size: 18px; letter-spacing: 0.25px; white-space-collapse: preserve; background-color: rgb(255, 255, 255);&quot;&gt;&lt;span style=&quot;font-size: 18px;&quot;&gt;intel&lt;/span&gt;&lt;/span&gt;&lt;/font&gt;&lt;/div&gt;" style="rounded=0;whiteSpace=wrap;html=1;fontFamily=Nunito;fontStyle=0;fontSize=18;" vertex="1" parent="1">
          <mxGeometry x="910" y="750" width="120" height="60" as="geometry" />
        </mxCell>
        <mxCell id="d93UorX2Dsy2BGc8bKR5-9" value="&lt;span style=&quot;color: rgb(6, 6, 7); font-size: 18px; letter-spacing: 0.25px; text-align: left; white-space-collapse: preserve; background-color: rgb(255, 255, 255); box-sizing: inherit;&quot;&gt;android&lt;/span&gt;" style="rounded=0;whiteSpace=wrap;html=1;fontFamily=Nunito;fontStyle=0;fontSize=18;" vertex="1" parent="1">
          <mxGeometry x="1040" y="750" width="120" height="60" as="geometry" />
        </mxCell>
        <mxCell id="d93UorX2Dsy2BGc8bKR5-10" style="edgeStyle=orthogonalEdgeStyle;rounded=0;orthogonalLoop=1;jettySize=auto;html=1;exitX=0.5;exitY=1;exitDx=0;exitDy=0;fontFamily=Nunito;fontStyle=0;fontSize=18;" edge="1" parent="1" source="d93UorX2Dsy2BGc8bKR5-12" target="d93UorX2Dsy2BGc8bKR5-18">
          <mxGeometry relative="1" as="geometry" />
        </mxCell>
        <mxCell id="d93UorX2Dsy2BGc8bKR5-11" style="edgeStyle=orthogonalEdgeStyle;rounded=0;orthogonalLoop=1;jettySize=auto;html=1;exitX=1;exitY=0.5;exitDx=0;exitDy=0;entryX=0;entryY=0.5;entryDx=0;entryDy=0;endArrow=none;endFill=0;fontFamily=Nunito;fontStyle=0;fontSize=18;" edge="1" parent="1" source="d93UorX2Dsy2BGc8bKR5-12" target="d93UorX2Dsy2BGc8bKR5-20">
          <mxGeometry relative="1" as="geometry" />
        </mxCell>
        <mxCell id="d93UorX2Dsy2BGc8bKR5-12" value="文本" style="rounded=0;whiteSpace=wrap;html=1;fontFamily=Nunito;fontStyle=0;fontSize=18;" vertex="1" parent="1">
          <mxGeometry x="-160" y="170" width="120" height="60" as="geometry" />
        </mxCell>
        <mxCell id="d93UorX2Dsy2BGc8bKR5-30" style="edgeStyle=orthogonalEdgeStyle;rounded=0;orthogonalLoop=1;jettySize=auto;html=1;exitX=0.5;exitY=0;exitDx=0;exitDy=0;entryX=0.5;entryY=1;entryDx=0;entryDy=0;fontFamily=Nunito;fontStyle=0;fontSize=18;" edge="1" parent="1" source="d93UorX2Dsy2BGc8bKR5-14" target="d93UorX2Dsy2BGc8bKR5-18">
          <mxGeometry relative="1" as="geometry" />
        </mxCell>
        <mxCell id="d93UorX2Dsy2BGc8bKR5-14" value="词库" style="rounded=0;whiteSpace=wrap;html=1;fontFamily=Nunito;fontStyle=0;fontSize=18;" vertex="1" parent="1">
          <mxGeometry x="-160" y="380" width="120" height="60" as="geometry" />
        </mxCell>
        <mxCell id="d93UorX2Dsy2BGc8bKR5-15" style="edgeStyle=orthogonalEdgeStyle;rounded=0;orthogonalLoop=1;jettySize=auto;html=1;exitX=1;exitY=0.5;exitDx=0;exitDy=0;entryX=0;entryY=0.5;entryDx=0;entryDy=0;fontFamily=Nunito;fontStyle=0;fontSize=18;" edge="1" parent="1" source="d93UorX2Dsy2BGc8bKR5-16" target="d93UorX2Dsy2BGc8bKR5-24">
          <mxGeometry relative="1" as="geometry" />
        </mxCell>
        <mxCell id="d93UorX2Dsy2BGc8bKR5-16" value="特征" style="rounded=0;whiteSpace=wrap;html=1;fontFamily=Nunito;fontStyle=0;fontSize=18;" vertex="1" parent="1">
          <mxGeometry x="-20" y="280" width="120" height="60" as="geometry" />
        </mxCell>
        <mxCell id="d93UorX2Dsy2BGc8bKR5-17" style="edgeStyle=orthogonalEdgeStyle;rounded=0;orthogonalLoop=1;jettySize=auto;html=1;exitX=1;exitY=0.5;exitDx=0;exitDy=0;entryX=0;entryY=0.5;entryDx=0;entryDy=0;fontFamily=Nunito;fontStyle=0;fontSize=18;" edge="1" parent="1" source="d93UorX2Dsy2BGc8bKR5-18" target="d93UorX2Dsy2BGc8bKR5-16">
          <mxGeometry relative="1" as="geometry" />
        </mxCell>
        <mxCell id="d93UorX2Dsy2BGc8bKR5-18" value="特征提取" style="shape=process;whiteSpace=wrap;html=1;backgroundOutline=1;fontFamily=Nunito;fontStyle=0;fontSize=18;" vertex="1" parent="1">
          <mxGeometry x="-160" y="280" width="120" height="60" as="geometry" />
        </mxCell>
        <mxCell id="d93UorX2Dsy2BGc8bKR5-19" style="edgeStyle=orthogonalEdgeStyle;rounded=0;orthogonalLoop=1;jettySize=auto;html=1;exitX=1;exitY=0.5;exitDx=0;exitDy=0;entryX=0;entryY=0.5;entryDx=0;entryDy=0;fontFamily=Nunito;fontStyle=0;fontSize=18;" edge="1" parent="1" source="d93UorX2Dsy2BGc8bKR5-20" target="d93UorX2Dsy2BGc8bKR5-24">
          <mxGeometry relative="1" as="geometry" />
        </mxCell>
        <mxCell id="d93UorX2Dsy2BGc8bKR5-20" value="标签" style="rounded=0;whiteSpace=wrap;html=1;fontFamily=Nunito;fontStyle=0;fontSize=18;" vertex="1" parent="1">
          <mxGeometry x="-20" y="170" width="120" height="60" as="geometry" />
        </mxCell>
        <mxCell id="d93UorX2Dsy2BGc8bKR5-21" style="edgeStyle=orthogonalEdgeStyle;rounded=0;orthogonalLoop=1;jettySize=auto;html=1;exitX=1;exitY=0.5;exitDx=0;exitDy=0;fontFamily=Nunito;fontStyle=0;fontSize=18;" edge="1" parent="1" source="d93UorX2Dsy2BGc8bKR5-22" target="d93UorX2Dsy2BGc8bKR5-26">
          <mxGeometry relative="1" as="geometry" />
        </mxCell>
        <mxCell id="d93UorX2Dsy2BGc8bKR5-22" value="模型" style="rounded=1;whiteSpace=wrap;html=1;fontFamily=Nunito;fontStyle=0;fontSize=18;" vertex="1" parent="1">
          <mxGeometry x="460" y="230" width="120" height="60" as="geometry" />
        </mxCell>
        <mxCell id="d93UorX2Dsy2BGc8bKR5-23" style="edgeStyle=orthogonalEdgeStyle;rounded=0;orthogonalLoop=1;jettySize=auto;html=1;exitX=1;exitY=0.5;exitDx=0;exitDy=0;entryX=0;entryY=0.5;entryDx=0;entryDy=0;fontFamily=Nunito;fontStyle=0;fontSize=18;" edge="1" parent="1" source="d93UorX2Dsy2BGc8bKR5-24" target="d93UorX2Dsy2BGc8bKR5-22">
          <mxGeometry relative="1" as="geometry" />
        </mxCell>
        <mxCell id="d93UorX2Dsy2BGc8bKR5-24" value="训练" style="shape=process;whiteSpace=wrap;html=1;backgroundOutline=1;fontFamily=Nunito;fontStyle=0;fontSize=18;" vertex="1" parent="1">
          <mxGeometry x="140" y="230" width="120" height="60" as="geometry" />
        </mxCell>
        <mxCell id="d93UorX2Dsy2BGc8bKR5-25" style="edgeStyle=orthogonalEdgeStyle;rounded=0;orthogonalLoop=1;jettySize=auto;html=1;exitX=1;exitY=0.5;exitDx=0;exitDy=0;fontFamily=Nunito;fontStyle=0;fontSize=18;" edge="1" parent="1" source="d93UorX2Dsy2BGc8bKR5-26" target="d93UorX2Dsy2BGc8bKR5-29">
          <mxGeometry relative="1" as="geometry" />
        </mxCell>
        <mxCell id="d93UorX2Dsy2BGc8bKR5-26" value="推理" style="shape=process;whiteSpace=wrap;html=1;backgroundOutline=1;fontFamily=Nunito;fontStyle=0;fontSize=18;" vertex="1" parent="1">
          <mxGeometry x="610" y="230" width="120" height="60" as="geometry" />
        </mxCell>
        <mxCell id="d93UorX2Dsy2BGc8bKR5-31" style="edgeStyle=orthogonalEdgeStyle;rounded=0;orthogonalLoop=1;jettySize=auto;html=1;exitX=0.5;exitY=1;exitDx=0;exitDy=0;entryX=0.5;entryY=0;entryDx=0;entryDy=0;fontFamily=Nunito;fontStyle=0;fontSize=18;" edge="1" parent="1" source="d93UorX2Dsy2BGc8bKR5-28" target="d93UorX2Dsy2BGc8bKR5-26">
          <mxGeometry relative="1" as="geometry" />
        </mxCell>
        <mxCell id="d93UorX2Dsy2BGc8bKR5-28" value="文本" style="rounded=0;whiteSpace=wrap;html=1;fontFamily=Nunito;fontStyle=0;fontSize=18;" vertex="1" parent="1">
          <mxGeometry x="610" y="140" width="120" height="60" as="geometry" />
        </mxCell>
        <mxCell id="d93UorX2Dsy2BGc8bKR5-29" value="标签" style="rounded=0;whiteSpace=wrap;html=1;fontFamily=Nunito;fontStyle=0;fontSize=18;" vertex="1" parent="1">
          <mxGeometry x="760" y="230" width="120" height="60" as="geometry" />
        </mxCell>
        <mxCell id="d93UorX2Dsy2BGc8bKR5-33" value="&lt;span style=&quot;color: rgb(6, 6, 7); font-size: 18px; letter-spacing: 0.25px; text-align: left; white-space-collapse: preserve; background-color: rgb(255, 255, 255); box-sizing: inherit;&quot;&gt;分桶实验&lt;/span&gt;" style="rounded=0;whiteSpace=wrap;html=1;fontFamily=Nunito;fontStyle=0;fontSize=18;" vertex="1" parent="1">
          <mxGeometry x="460" y="450" width="180" height="60" as="geometry" />
        </mxCell>
      </root>
    </mxGraphModel>
  </diagram>
</mxfile>
